<?xml version="1.0" encoding="utf-8"?>
<!-- Generator: Adobe Illustrator 16.0.0, SVG Export Plug-In . SVG Version: 6.00 Build 0)  -->
<!DOCTYPE svg PUBLIC "-//W3C//DTD SVG 1.1//EN" "http://www.w3.org/Graphics/SVG/1.1/DTD/svg11.dtd">
<svg version="1.1" id="Layer_1" xmlns="http://www.w3.org/2000/svg" xmlns:xlink="http://www.w3.org/1999/xlink" x="0px" y="0px"
	 width="295px" height="383px" viewBox="0 0 295 383" enable-background="new 0 0 295 383" xml:space="preserve">
<g>
	<g>
		<path stroke="#000000" stroke-width="3" stroke-miterlimit="10" d="M228.822,371.697H71.659l-0.868-0.233
			c-1.492-0.407-36.411-10.193-34.956-36.682l-0.042-64.244l0.062-0.46c0.228-1.66,6.073-40.75,50.51-53.443l3.704,12.967
			c-33.931,9.693-40.138,38.309-40.791,41.931l0.042,63.657l-0.013,0.211c-0.87,13.928,19.956,21.419,24.259,22.813h153.23
			c24.587-7.804,25.6-21.029,25.602-21.162l-0.002-65.172c-8.797-31.718-46.438-44.47-46.822-44.595l4.225-12.809
			c1.859,0.614,45.667,15.478,55.868,54.826l0.216,0.831v67.081c-0.025,1.112-0.968,23.501-36.102,34.194L228.822,371.697z"/>
	</g>
	<g>
		<path stroke="#000000" stroke-width="3" stroke-miterlimit="10" d="M136.542,234.305c0,0,9.845-12.081,24.162,0
			c0,0,8.951-3.578,14.767-10.29c5.816-6.713,21.479,3.582,12.976,12.081c-8.501,8.498-1.791,11.629,0.447,12.972
			s9.842,16.112-7.606,13.872c-17.45-2.238-14.318-15.663-21.479-11.186c-7.156,4.474-13.869,8.5-23.266-0.896
			c0,0-5.816-2.683-11.634,6.266c-5.816,8.947-21.477,9.397-22.819-0.896c-1.343-10.294,4.026-8.951,5.369-8.951
			c1.342,0,5.389-11.185-5.584-13.42c0,0-2.023-13.722,12.295-12.006C128.488,223.566,128.041,236.539,136.542,234.305z"/>
	</g>
	<g>
		<path stroke="#000000" stroke-width="3" stroke-miterlimit="10" d="M220.661,127.376c-2.683-5.369,0-38.48,2.685-52.351
			c2.686-13.871-11.633-19.688-11.633-19.688c-4.026-22.82-32.216-18.793-56.379-19.689c-24.162-0.895-36.688-17.45-36.688-17.45
			c2.237,7.158-21.926,28.637-29.532,30.874c-7.606,2.235-4.922,14.764-4.922,14.764c-16.108,1.343-13.87,28.189-11.185,33.559
			c2.685,5.369,3.578,34.454,3.578,34.454c-7.16,24.163,12.081,27.294,12.081,27.294c20.135,47.876,62.173,54.587,62.173,54.587
			c42.485-11.185,60.875-55.035,60.875-55.035C233.19,149.749,223.346,132.745,220.661,127.376z M204.999,108.584
			c6.265-0.446,3.582,35.795,3.582,35.795s-23.714,64.878-57.743,60.852c-34.027-4.025-51.434-40.718-57.25-55.034
			c-5.816-14.317-1.343-39.823-1.343-39.823c3.58-4.474,3.132-14.825,3.132-14.825c-13.423-14.821-7.158-22.314-7.158-22.314
			c21.924,29.083,36.689,19.24,36.689,19.24s-21.029-4.026-10.739-28.887c10.292-24.862,7.732-31.965,7.732-31.965
			c5.494,2.685,1.664,23.716,1.664,23.716s-9.843,28.189,18.346,38.479c28.19,10.291,66.67-28.637,66.67-28.637
			c4.474-0.448-7.606,22.372-10.738,22.372C194.71,87.553,198.734,109.03,204.999,108.584z"/>
	</g>
</g>
</svg>
