<?xml version="1.0" encoding="iso-8859-1"?>
<!-- Generator: Adobe Illustrator 19.0.0, SVG Export Plug-In . SVG Version: 6.00 Build 0)  -->
<svg version="1.1" id="Layer_1" xmlns="http://www.w3.org/2000/svg" xmlns:xlink="http://www.w3.org/1999/xlink" x="0px" y="0px"
	 viewBox="0 0 511.999 511.999" style="enable-background:new 0 0 511.999 511.999;" xml:space="preserve">
<g>
	<g>
		<g>
			<path d="M500.519,255.999h-8.973c0-129.881-105.665-235.546-235.546-235.546c-11.494,0-20.812,9.318-20.812,20.812
				c0,11.494,9.318,20.812,20.812,20.812c106.928,0,193.922,86.993,193.922,193.922h-8.971c-8.824,0-14.341,9.553-9.929,17.196
				l29.785,51.588c4.412,7.642,15.444,7.642,19.856,0l29.784-51.588C514.859,265.553,509.343,255.999,500.519,255.999z"/>
			<path d="M256,449.921c-106.929,0-193.922-86.993-193.922-193.922h8.971c8.824,0,14.341-9.553,9.927-17.197l-29.784-51.588
				c-4.412-7.642-15.444-7.642-19.856,0L1.553,238.804C-2.859,246.446,2.656,256,11.48,256h8.971
				c0,129.881,105.665,235.546,235.546,235.546c11.494,0,20.812-9.318,20.812-20.812C276.812,459.239,267.493,449.921,256,449.921z"
				/>
			<path d="M253.158,235.23v-18.295C241.953,219.176,238.127,228.901,253.158,235.23z"/>
			<path d="M261.767,263.673v20.603c5.228-1.231,9.379-4.151,9.379-9.686C271.147,269.516,267.303,266.287,261.767,263.673z"/>
			<path d="M256,104.461c-83.559,0-151.538,67.98-151.538,151.538S172.441,407.537,256,407.537s151.538-67.98,151.538-151.538
				S339.558,104.461,256,104.461z M263.306,305.646v4.458c0,2.153-2.921,4.151-5.843,4.151c-3.383,0-5.841-1.998-5.841-4.151v-3.843
				c-18.449-0.615-33.517-10.148-33.517-19.987c0-5.228,4.613-12.915,10.455-12.915c6.457,0,11.685,9.071,23.063,11.071v-24.907
				c-14.144-5.381-30.749-11.992-30.749-31.672c0-19.526,14.452-28.904,30.749-31.21v-4.305c0-2.152,2.46-4.151,5.841-4.151
				c2.921,0,5.843,1.999,5.843,4.151v3.845c9.532,0.308,27.521,2.768,27.521,13.375c0,4.151-2.767,12.607-9.532,12.607
				c-5.074,0-7.995-4.92-17.989-5.689v22.447c13.991,5.228,30.287,12.454,30.287,33.209
				C293.593,291.194,281.295,302.725,263.306,305.646z"/>
		</g>
	</g>
</g>
<g>
</g>
<g>
</g>
<g>
</g>
<g>
</g>
<g>
</g>
<g>
</g>
<g>
</g>
<g>
</g>
<g>
</g>
<g>
</g>
<g>
</g>
<g>
</g>
<g>
</g>
<g>
</g>
<g>
</g>
</svg>
