<?xml version="1.0" encoding="UTF-8"?>
<!DOCTYPE svg PUBLIC "-//W3C//DTD SVG 1.1//EN" "http://www.w3.org/Graphics/SVG/1.1/DTD/svg11.dtd">
<!-- Creator: CorelDRAW X7 -->
<svg xmlns="http://www.w3.org/2000/svg" xml:space="preserve" width="19.2811mm" height="25.1347mm" version="1.1" style="shape-rendering:geometricPrecision; text-rendering:geometricPrecision; image-rendering:optimizeQuality; fill-rule:evenodd; clip-rule:evenodd"
viewBox="0 0 1928 2513"
 xmlns:xlink="http://www.w3.org/1999/xlink">
 <defs>
  <style type="text/css">
   <![CDATA[
    .str0 {stroke:black;stroke-width:79.3696}
    .str1 {stroke:black;stroke-width:26.4499}
    .fil0 {fill:none}
   ]]>
  </style>
 </defs>
 <g id="Capa_x0020_1">
  <metadata id="CorelCorpID_0Corel-Layer"/>
  <path class="fil0 str0" d="M202 2171c-113,42 -192,107 -152,253 144,58 333,52 572,-22 209,84 442,106 724,0 161,55 340,59 535,15 25,-99 -10,-184 -130,-246 83,-222 43,-428 -73,-622 8,-515 -167,-636 -492,-760l-405 -7c-373,91 -557,329 -521,738 -103,195 -137,409 -58,651zm813 -455l0 185c39,-4 68,-14 88,-30 20,-16 30,-38 30,-64 0,-24 -9,-43 -28,-58 -18,-14 -48,-25 -90,-33zm-91 404l0 -137c-4,0 -8,0 -15,0 -7,1 -12,1 -15,1 -84,0 -151,-16 -201,-47 -50,-31 -75,-71 -75,-122 0,-33 10,-60 31,-80 21,-20 48,-31 82,-31 29,0 53,9 73,26 19,17 28,38 28,64 0,19 -6,35 -19,47 -12,12 -31,19 -55,22 20,14 43,24 70,30 26,6 58,9 96,9l0 -210c-105,-19 -180,-47 -225,-84 -46,-36 -69,-87 -69,-151 0,-68 27,-123 79,-166 53,-43 124,-67 215,-72l0 -84 91 0 0 85c84,5 149,23 198,53 49,31 73,69 73,115 0,28 -9,50 -27,68 -19,18 -43,26 -72,26 -29,0 -52,-8 -70,-23 -19,-16 -28,-36 -28,-61 0,-14 4,-26 11,-36 7,-10 17,-19 31,-25 -16,-9 -34,-16 -53,-21 -19,-4 -40,-7 -63,-7l0 202c103,19 178,47 225,84 47,38 70,88 70,152 0,68 -27,124 -80,166 -53,43 -125,66 -215,70l0 137 -91 0zm-1 -812c-38,4 -66,13 -84,28 -18,14 -27,34 -27,60 0,25 9,45 27,60 18,15 46,25 85,32l-1 -180z"/>
  <path class="fil0 str0" d="M600 242c109,98 182,210 210,340l297 0c46,-137 116,-247 217,-326 10,-67 -12,-111 -87,-115 -32,-49 -76,-75 -145,-58 -43,-42 -84,-49 -123,-15 -43,-41 -84,-39 -123,15 -98,-18 -159,-5 -159,58 -77,7 -99,45 -87,101zm87 -66l0 0c9,-4 20,0 24,9 17,36 70,92 114,243 -68,-147 -114,-213 -146,-228 -9,-4 -1,-19 8,-24zm386 -67l0 0c8,1 21,21 14,17 -12,-7 -6,264 -11,242 -2,-9 -19,-92 -18,-246 0,-9 7,-14 15,-13zm-136 -26l0 0c-7,3 -15,13 -11,20 13,22 36,159 58,369 14,-217 22,-229 -22,-384 -2,-7 -17,-7 -25,-5zm280 75l0 0c7,4 10,28 5,21 -7,-11 -121,235 -115,213 2,-9 23,-91 91,-229 4,-8 12,-10 19,-5zm-409 -41l0 0c10,-3 20,2 23,12 12,38 51,39 68,278 -70,-259 -89,-241 -102,-267 -5,-9 2,-20 11,-23z"/>
  <line class="fil0 str1" x1="781" y1="661" x2="1134" y2= "661" />
  <line class="fil0 str1" x1="787" y1="714" x2="1141" y2= "714" />
 </g>
</svg>
