<?xml version="1.0" encoding="utf-8"?>
<!-- Generator: Adobe Illustrator 16.0.0, SVG Export Plug-In . SVG Version: 6.00 Build 0)  -->
<!DOCTYPE svg PUBLIC "-//W3C//DTD SVG 1.1//EN" "http://www.w3.org/Graphics/SVG/1.1/DTD/svg11.dtd">
<svg class="iconoHome" version="1.1" id="Layer_1" xmlns="http://www.w3.org/2000/svg" xmlns:xlink="http://www.w3.org/1999/xlink" x="0px" y="0px"
	 width="295px" height="383px" viewBox="0 0 295 383" enable-background="new 0 0 295 383" xml:space="preserve">
<g>
	<g>
		<g id="XMLID_1_">
			<g>
				<path stroke-width="1" stroke-miterlimit="10" d="M287.519,208.468
					c3.271,14.838-9.234,28.001-9.799,28.557l-0.748,0.656l-91.466,60.294c-15.777,11.106-29.303,13.439-37.799,13.439
					c-8.958,0-14.283-2.431-14.837-2.708l-98.567-63.465c-14.556-6.258-23.049-14.844-24.635-25.202
					c-2.334-15.399,12.223-27.906,12.787-28.466l10.83-7.186c8.11-0.187,15.021-5.136,18.292-12.136l1.021-0.652
					c1.312,2.894,3.172,5.505,5.415,7.562l-29.96,19.877c0,0.097-9.334,8.399-9.334,17.733c0,0.657,0.09,1.308,0.191,1.959
					c1.021,6.909,7.748,13.07,19.787,18.294l98.648,63.469c0.283,0,16.899,8.027,42.941-10.175l91.092-60.109
					c1.585-1.862,8.956-10.823,6.999-19.781c-1.404-6.627-7.746-12.227-18.948-16.616l-0.842-0.465l-22.584-14.844
					c2.424-1.96,4.478-4.479,5.789-7.369l0.464,0.369c3.361,5.697,9.142,9.707,15.959,10.454h0.094l5.036,3.359
					C277.256,190.917,285.467,198.664,287.519,208.468z"/>
				<path stroke-width="1" stroke-miterlimit="10" d="M260.456,139.68
					c11.574,0,20.91,9.52,20.91,21.187c0,11.667-9.336,21.186-20.91,21.186c-0.748,0-1.404,0-2.148-0.095h-0.094l-15.959-10.454
					c-0.091-0.187-0.19-0.369-0.283-0.556v-0.095c1.211-2.708,1.96-5.789,1.96-8.96c0-3.545-0.93-7-2.424-9.985
					C244.769,144.72,252.054,139.68,260.456,139.68z M276.698,160.867c0-9.146-7.281-16.521-16.242-16.521
					s-16.333,7.375-16.333,16.521s7.372,16.521,16.333,16.521S276.698,170.013,276.698,160.867z"/>
				<path stroke-width="1" stroke-miterlimit="10" d="M242.255,171.503l15.959,10.454
					C251.396,181.21,245.616,177.201,242.255,171.503z"/>
				<path stroke-width="1" stroke-miterlimit="10" d="M241.508,151.907
					c1.494,2.985,2.424,6.439,2.424,9.985c0,3.171-0.749,6.252-1.96,8.96c-1.586-2.986-2.516-6.349-2.516-9.985
					C239.456,157.598,240.206,154.614,241.508,151.907z"/>
				<path stroke-width="1" stroke-miterlimit="10" d="M241.972,170.852v0.095
					c-0.092,0.091-0.092,0.091-0.181,0.187l-3.92-2.615c0.93-2.052,1.393-4.294,1.393-6.627c0-9.146-7.271-16.521-16.232-16.521
					c-4.858,0-9.151,2.148-12.039,5.505l-4.02-2.61c3.919-4.667,9.615-7.561,16.059-7.561c8.021,0,14.93,4.575,18.477,11.202
					c-1.302,2.707-2.052,5.691-2.052,8.959C239.456,164.503,240.386,167.866,241.972,170.852z"/>
				<path stroke-width="1" stroke-miterlimit="10" d="M237.871,168.519l3.92,2.615
					c-1.312,2.89-3.365,5.409-5.789,7.369l-4.201-2.703C234.508,174.024,236.659,171.503,237.871,168.519z"/>
				<polygon stroke-width="1" stroke-miterlimit="10" points="236.749,193.624 236.002,198.664 223.869,198.664
					222.658,207.159 232.729,207.159 231.992,212.104 221.909,212.104 220.417,221.813 232.547,221.813 231.801,226.761
					213.223,226.761 218.265,193.624 				"/>
				<path stroke-width="1" stroke-miterlimit="10" d="M231.801,175.8l4.201,2.703
					c-3.546,2.894-8.12,4.576-12.971,4.576c-8.029,0-14.937-4.576-18.575-11.202c1.496-2.895,2.243-6.066,2.243-9.424
					c0-0.188,0-0.374,0-0.561c0,9.146,7.365,16.52,16.332,16.52C226.295,178.412,229.284,177.478,231.801,175.8z"/>
				<polygon stroke-width="1" stroke-miterlimit="10" points="214.538,193.624 213.789,198.664 201.284,198.664
					199.881,207.907 210.426,207.907 209.68,212.948 199.134,212.948 197.084,226.761 190.639,226.761 195.588,193.624 				"/>
				<path stroke-width="1" stroke-miterlimit="10" d="M206.973,148.266l4.02,2.61
					c-2.152,2.333-3.646,5.228-4.02,8.496l-0.558-0.374c-0.374-2.333-1.121-4.48-2.149-6.532
					C205.013,150.973,205.952,149.573,206.973,148.266z"/>
				<path stroke-width="1" stroke-miterlimit="10" d="M206.973,159.372
					c-0.182,0.839-0.273,1.681-0.273,2.52c0-1.025-0.101-1.96-0.284-2.894L206.973,159.372z"/>
				<path stroke-width="1" stroke-miterlimit="10" d="M167.588,122.412l39.385,25.854
					c-1.021,1.308-1.96,2.707-2.707,4.201c-3.547-6.63-10.455-11.201-18.477-11.201c-1.869,0-3.645,0.277-5.322,0.748l-18.01-11.854
					c-0.09,0-7.001-4.48-16.063-4.48c-5.221,0-10.17,1.49-14.646,4.48l-18.576,12.318c-0.838,0-1.585-0.092-2.424-0.092
					c-8.777,0-16.241,5.415-19.414,13.157c-0.938-2.611-2.424-4.945-4.293-6.904l39.575-26.228
					c6.06-4.015,12.687-6.065,19.777-6.065C158.347,116.347,167.213,122.134,167.588,122.412z"/>
				<path  stroke-width="1" stroke-miterlimit="10" d="M206.699,161.892c0,0.187,0,0.373,0,0.561
					c0,3.358-0.747,6.53-2.243,9.424c-1.494-2.895-2.334-6.066-2.425-9.424c0-0.188,0-0.374,0-0.561c0-1.773,0.185-3.545,0.74-5.227
					l3.644,2.333C206.599,159.932,206.699,160.867,206.699,161.892z"/>
				<path  stroke-width="1" stroke-miterlimit="10" d="M206.415,158.999l-3.644-2.333
					c0.282-1.495,0.846-2.895,1.494-4.198C205.294,154.519,206.041,156.665,206.415,158.999z"/>
				<path  stroke-width="1" stroke-miterlimit="10" d="M202.68,239.171c0.748,0.656,1.028,1.591,0.748,2.803v0.09
					h-0.466c0.182-1.024,0-1.863-0.657-2.521c-0.647-0.651-1.586-0.929-2.707-0.929c-0.928,0-1.768,0.187-2.514,0.744
					c-0.658,0.469-1.121,1.029-1.215,1.681c-0.101,0.935,0.094,1.586,0.557,2.146c0.464,0.464,1.404,1.025,2.898,1.496
					c1.395,0.464,2.517,1.023,3.172,1.677c0.647,0.561,0.932,1.402,0.748,2.428c-0.19,0.936-0.656,1.681-1.496,2.146
					c-0.839,0.561-1.867,0.839-3.171,0.839c-1.213,0-2.241-0.373-3.078-0.935c-0.843-0.65-1.216-1.585-0.942-2.984h0.475
					c-0.19,1.212,0.093,2.146,0.838,2.614c0.747,0.557,1.679,0.84,2.801,0.84c1.029,0,1.957-0.283,2.704-0.748
					c0.842-0.56,1.306-1.121,1.397-1.772c0.099-0.839-0.092-1.586-0.556-2.056c-0.559-0.561-1.589-1.025-2.993-1.585
					c-1.494-0.464-2.513-1.025-3.171-1.586c-0.553-0.562-0.839-1.398-0.656-2.521c0.104-0.839,0.567-1.586,1.405-2.147
					c0.747-0.559,1.776-0.747,2.898-0.747C200.909,238.145,201.933,238.428,202.68,239.171z"/>
				<path  stroke-width="1" stroke-miterlimit="10" d="M204.266,152.467
					c-0.648,1.304-1.212,2.703-1.494,4.198l-2.608-1.773c-2.525-5.131-7.655-8.586-13.536-8.868l-6.16-4.01
					c1.678-0.471,3.453-0.748,5.322-0.748C193.811,141.266,200.719,145.836,204.266,152.467z"/>
				<path  stroke-width="1" stroke-miterlimit="10" d="M200.163,154.892l2.608,1.773
					c-0.556,1.682-0.74,3.454-0.74,5.227c0,0.187,0,0.373,0,0.561C202.031,159.745,201.374,157.134,200.163,154.892z"/>
				<path  stroke-width="1" stroke-miterlimit="10" d="M202.031,162.453
					c0.091,3.358,0.931,6.53,2.425,9.424c-3.361,7-10.453,11.762-18.667,11.762c-8.027,0-15.03-4.575-18.576-11.293
					c1.302-2.429,2.15-5.04,2.424-7.842c0.94,8.12,7.839,14.469,16.152,14.469C194.749,178.973,202.031,171.503,202.031,162.453z"/>
				<path  stroke-width="1" stroke-miterlimit="10" d="M200.163,154.892l-13.536-8.868
					C192.508,146.306,197.638,149.761,200.163,154.892z"/>
				<path  stroke-width="1" stroke-miterlimit="10" d="M187.093,239.73c0.748,1.031,1.03,2.431,0.748,4.202
					l-0.282,1.961c-0.273,1.867-0.932,3.358-1.962,4.389c-1.019,0.93-2.331,1.489-3.916,1.489c-1.497,0-2.617-0.56-3.356-1.585
					c-0.747-1.122-1.028-2.521-0.747-4.293l0.273-1.961c0.283-1.869,0.939-3.269,1.961-4.293c1.028-1.025,2.333-1.495,3.918-1.495
					C185.226,238.145,186.344,238.614,187.093,239.73z M187.375,243.933c0.282-1.682,0.09-2.984-0.563-3.919
					c-0.648-0.935-1.679-1.399-3.173-1.399c-1.394,0-2.516,0.465-3.455,1.399c-1.021,1.025-1.586,2.334-1.859,3.919l-0.283,1.961
					c-0.279,1.771-0.089,3.08,0.557,4.014c0.656,0.93,1.688,1.399,3.171,1.399c1.404,0,2.525-0.562,3.557-1.494
					c0.93-0.934,1.486-2.238,1.768-3.919L187.375,243.933z"/>
				<path  stroke-width="1" stroke-miterlimit="10" d="M186.627,146.024
					c-0.283-0.093-0.563-0.093-0.838-0.093c-8.121,0-14.938,6.067-16.061,14.001c-0.271-2.798-1.111-5.414-2.333-7.747
					c2.809-4.945,7.474-8.774,13.071-10.171L186.627,146.024z"/>
				<path stroke-width="1" stroke-miterlimit="10" d="M173.186,193.624l4.482,33.137h-6.817l-0.748-7.187H161.8
					l-2.988,7.187h-6.628l14.374-33.137H173.186z M169.549,214.535l-1.214-10.456h-0.094l-4.389,10.456H169.549z"/>
				<polygon stroke-width="1" stroke-miterlimit="10" points="171.225,238.333 169.173,251.584 168.709,251.584
					162.084,239.171 161.993,239.171 160.124,251.584 159.659,251.584 161.618,238.333 162.173,238.333 168.799,250.651
					168.891,250.651 170.67,238.333 				"/>
				<path stroke-width="1" stroke-miterlimit="10" d="M169.729,159.932
					c0.099,0.652,0.099,1.4,0.099,2.146c0,0.839-0.099,1.682-0.19,2.425c-0.18-0.652-0.18-1.4-0.18-2.051
					C169.457,161.614,169.549,160.77,169.729,159.932z"/>
				<path stroke-width="1" stroke-miterlimit="10" d="M169.729,159.932
					c-0.18,0.838-0.271,1.682-0.271,2.521c0,0.651,0,1.399,0.18,2.051c-0.273,2.803-1.122,5.414-2.424,7.842
					c-1.211-2.333-2.049-4.949-2.333-7.747v-0.096c0.185-0.743,0.284-1.585,0.284-2.425c0-0.651,0-1.399-0.192-2.055
					c0.283-2.798,1.122-5.41,2.424-7.838C168.617,154.519,169.457,157.134,169.729,159.932z"/>
				<path stroke-width="1" stroke-miterlimit="10" d="M167.396,152.185
					c-1.302,2.429-2.141,5.04-2.424,7.838c-0.93-8.213-7.839-14.464-16.143-14.464c-8.958,0-16.243,7.374-16.243,16.52
					c0,9.056,7.284,16.521,16.243,16.521c8.121,0,14.93-6.161,16.051-14c0.284,2.798,1.122,5.414,2.333,7.747
					c-3.635,6.531-10.546,10.92-18.384,10.92c-8.213,0-15.405-4.854-18.767-11.854c1.029-2.429,1.595-5.039,1.595-7.837
					c0-3.363-0.748-6.535-2.243-9.429c3.082-7.748,10.636-13.253,19.414-13.253C156.851,140.892,163.953,145.467,167.396,152.185z"
					/>
				<path stroke-width="1" stroke-miterlimit="10" d="M164.972,160.023
					c0.192,0.656,0.192,1.404,0.192,2.055c0,0.839-0.1,1.682-0.284,2.425c-0.091-0.652-0.091-1.4-0.091-2.051
					C164.789,161.614,164.88,160.77,164.972,160.023z"/>
				<polygon stroke-width="1" stroke-miterlimit="10" points="157.88,193.624 157.133,198.664 149.386,198.664
					145.184,226.761 138.75,226.761 142.949,198.664 135.294,198.664 136.132,193.624 				"/>
				<polygon stroke-width="1" stroke-miterlimit="10" points="153.121,238.333 151.163,251.584 150.698,251.584
					152.658,238.333 				"/>
				<path stroke-width="1" stroke-miterlimit="10" d="M143.133,239.171c0.748,0.656,1.031,1.591,0.748,2.803v0.09
					h-0.374c0.089-1.024-0.09-1.863-0.749-2.521c-0.656-0.651-1.495-0.929-2.708-0.929c-0.928,0-1.767,0.187-2.515,0.744
					c-0.656,0.469-1.121,1.029-1.211,1.681c-0.101,0.935,0.09,1.586,0.555,2.146c0.464,0.464,1.495,1.025,2.99,1.496
					c1.394,0.464,2.424,1.023,3.079,1.677c0.647,0.561,0.932,1.402,0.749,2.428c-0.101,0.936-0.655,1.681-1.496,2.146
					c-0.838,0.561-1.867,0.839-3.079,0.839c-1.312,0-2.333-0.373-3.172-0.935c-0.848-0.65-1.122-1.585-0.94-2.984h0.467
					c-0.184,1.212,0.1,2.146,0.848,2.614c0.738,0.557,1.676,0.84,2.798,0.84c1.021,0,1.959-0.283,2.797-0.748
					c0.749-0.56,1.212-1.121,1.303-1.772c0.1-0.839-0.091-1.586-0.555-2.056c-0.566-0.561-1.495-1.025-2.991-1.585
					c-1.496-0.464-2.515-1.025-3.172-1.586c-0.555-0.562-0.838-1.398-0.654-2.521c0.19-0.839,0.654-1.586,1.402-2.147
					c0.838-0.559,1.777-0.747,2.892-0.747C141.457,238.145,142.385,238.428,143.133,239.171z"/>
				<polygon stroke-width="1" stroke-miterlimit="10" points="133.518,193.624 128.577,226.761 122.133,226.761
					114.759,205.665 114.578,205.665 111.497,226.761 105.051,226.761 110.001,193.624 116.438,193.624 123.81,214.812
					123.91,214.812 127.082,193.624 				"/>
				<path stroke-width="1" stroke-miterlimit="10" d="M131.658,163.574
					c0,2.798-0.566,5.409-1.595,7.837c-1.395-2.797-2.144-5.974-2.144-9.333c0-2.798,0.558-5.506,1.496-7.934
					C130.91,157.039,131.658,160.211,131.658,163.574z"/>
				<path stroke-width="1" stroke-miterlimit="10" d="M125.122,238.333l2.981,13.251h-0.554l-0.841-4.01h-6.534
					l-2.05,4.01h-0.567l6.911-13.251H125.122z M126.518,247.104l-1.587-7.464l-0.183-0.748l-0.374,0.748l-3.917,7.464H126.518z"/>
				<path stroke-width="1" stroke-miterlimit="10" d="M129.415,154.145
					c-0.938,2.428-1.496,5.136-1.496,7.934c0,3.358,0.749,6.535,2.144,9.333c-2.981,7.839-10.546,13.35-19.314,13.35
					c-8.87,0-16.525-5.6-19.504-13.535c1.019-2.521,1.585-5.228,1.585-8.026c0-2.241-0.374-4.48-1.031-6.535l7.93-5.228
					c-3.263,2.99-5.313,7.375-5.313,12.137c0,9.146,7.282,16.52,16.333,16.52c8.96,0,16.242-7.374,16.242-16.52
					c0-9.055-7.282-16.521-16.242-16.521c-2.243,0-4.383,0.466-6.354,1.304l8.777-5.879
					C120.265,143.411,126.333,147.891,129.415,154.145z"/>
				<path stroke-width="1" stroke-miterlimit="10" d="M113.172,142.478l-8.777,5.879
					c-0.089,0-0.183,0.095-0.273,0.187c-1.685,0.656-3.171,1.681-4.393,2.893l-7.93,5.228c-0.09-0.374-0.283-0.748-0.464-1.122
					c3.172-7.743,10.637-13.157,19.414-13.157C111.587,142.386,112.334,142.478,113.172,142.478z"/>
				<path stroke-width="1" stroke-miterlimit="10" d="M111.961,239.171c0.747,0.749,1.029,1.777,0.838,3.08v0.097
					h-0.465c0.184-1.213,0-2.147-0.656-2.805c-0.646-0.651-1.677-0.929-2.889-0.929c-1.313,0-2.424,0.465-3.362,1.489
					c-0.931,0.936-1.586,2.244-1.769,3.829l-0.284,1.961c-0.281,1.681-0.09,2.985,0.557,3.919c0.655,0.933,1.586,1.494,2.898,1.494
					c1.303,0,2.333-0.374,3.172-1.024c0.838-0.561,1.395-1.496,1.585-2.802h0.375v0.094c-0.191,1.399-0.748,2.425-1.677,3.171
					c-0.938,0.653-2.06,1.026-3.455,1.026c-1.403,0-2.524-0.56-3.272-1.678c-0.748-1.029-0.931-2.429-0.748-4.2l0.375-1.961
					c0.28-1.771,0.847-3.269,1.867-4.293c1.03-1.025,2.333-1.495,3.829-1.495C110.185,238.145,111.213,238.428,111.961,239.171z"/>
				<path stroke-width="1" stroke-miterlimit="10" d="M104.122,148.544l-4.393,2.893
					C100.95,150.225,102.437,149.2,104.122,148.544z"/>
				<path stroke-width="1" stroke-miterlimit="10" d="M97.959,193.624l4.386,33.137h-6.717l-0.748-7.187h-8.303
					l-2.991,7.187H76.87l14.375-33.137H97.959z M94.224,214.535l-1.122-10.456h-0.181l-4.293,10.456H94.224z"/>
				<path stroke-width="1" stroke-miterlimit="10" d="M91.799,156.665
					c0.658,2.055,1.031,4.293,1.031,6.535c0,2.798-0.567,5.506-1.585,8.026c-1.031-2.425-1.496-4.946-1.496-7.652
					c0-2.146,0.281-4.106,0.929-6.071L91.799,156.665z"/>
				<path stroke-width="1" stroke-miterlimit="10" d="M91.335,155.543
					c0.181,0.374,0.374,0.748,0.464,1.122l-1.121,0.838C90.868,156.852,91.051,156.199,91.335,155.543z"/>
				<path stroke-width="1" stroke-miterlimit="10" d="M91.335,155.543
					c-0.284,0.656-0.467,1.309-0.657,1.959l-2.981,1.964c-0.655-3.268-2.332-6.07-4.665-8.121l4.01-2.708
					C88.911,150.599,90.397,152.933,91.335,155.543z"/>
				<path stroke-width="1" stroke-miterlimit="10" d="M87.697,159.467l2.981-1.964
					c-0.647,1.964-0.929,3.925-0.929,6.071c0,2.706,0.464,5.227,1.496,7.652c-3.182,7.747-10.646,13.161-19.417,13.161
					c-5.321,0-10.079-1.959-13.815-5.226l4.11-2.804c2.708,2.146,6.06,3.363,9.706,3.363c8.96,0,16.335-7.374,16.335-16.52
					C88.164,161.892,87.97,160.679,87.697,159.467z"/>
				<path stroke-width="1" stroke-miterlimit="10" d="M87.042,148.639l-4.01,2.708
					c-2.898-2.99-6.911-4.667-11.204-4.667c-8.958,0-16.242,7.373-16.242,16.52c0,2.05,0.374,3.92,1.031,5.693l-4.02,2.707
					c-0.09-0.283-0.183-0.652-0.374-0.934c0.938-2.334,1.402-4.854,1.402-7.465c0-2.616-0.465-5.136-1.402-7.469
					c2.988-8.026,10.646-13.717,19.604-13.717C77.801,142.014,83.213,144.533,87.042,148.639z"/>
				<path stroke-width="1" stroke-miterlimit="10" d="M75.557,195.867c1.777,1.772,2.434,4.293,1.869,7.373v0.186
					h-6.252c0.19-1.589,0-2.803-0.749-3.826c-0.747-0.936-1.869-1.398-3.171-1.398c-1.031,0-1.959,0.277-2.707,1.023
					c-0.838,0.652-1.303,1.496-1.405,2.426c-0.272,1.402,0,2.52,0.748,3.268c0.748,0.747,2.243,1.586,4.577,2.614
					c3.081,1.214,5.323,2.613,6.717,4.385c1.402,1.683,1.96,3.921,1.496,6.813c-0.374,2.804-1.586,4.854-3.729,6.349
					c-2.06,1.495-4.575,2.146-7.566,2.146c-3.171,0-5.879-0.748-8.02-2.424c-2.152-1.684-2.9-4.202-2.333-7.657l0.091-0.09h6.162
					c-0.283,1.862,0.091,3.262,1.113,4.01c0.938,0.843,2.24,1.216,3.735,1.216c0.929,0,1.869-0.373,2.708-1.029
					c0.838-0.651,1.303-1.49,1.496-2.426c0.181-1.493,0-2.706-0.748-3.452c-0.657-0.838-1.96-1.683-3.83-2.613
					c-3.361-1.215-5.788-2.614-7.374-4.386c-1.585-1.684-2.141-3.921-1.677-6.724c0.375-2.612,1.586-4.666,3.729-6.252
					c2.059-1.492,4.574-2.239,7.564-2.239C71.264,193.159,73.789,193.998,75.557,195.867z"/>
				<path stroke-width="1" stroke-miterlimit="10" d="M62.123,176.357l-4.11,2.804
					c-2.243-2.057-4.104-4.667-5.415-7.562l4.02-2.707C57.636,171.973,59.599,174.583,62.123,176.357z"/>
				<path stroke-width="1" stroke-miterlimit="10" d="M52.224,155.73
					c0.938,2.333,1.402,4.854,1.402,7.469c0,2.611-0.465,5.131-1.402,7.465c-0.838-2.334-1.302-4.854-1.302-7.465
					C50.922,160.584,51.386,158.064,52.224,155.73z"/>
				<path stroke-width="1" stroke-miterlimit="10" d="M52.224,170.665
					c-0.184,0.561-0.374,1.025-0.648,1.586l-18.292,12.136c-0.193,0-0.374,0-0.567,0c-11.575,0-21-9.52-21-21.187
					c0-11.667,9.425-21.186,21-21.186c8.96,0,16.616,5.691,19.507,13.717c-0.838,2.333-1.302,4.854-1.302,7.469
					C50.922,165.811,51.386,168.331,52.224,170.665z M48.959,163.2c0-9.147-7.282-16.52-16.242-16.52
					c-8.958,0-16.333,7.373-16.333,16.52c0,9.146,7.374,16.52,16.333,16.52C41.678,179.72,48.959,172.346,48.959,163.2z"/>
				<path stroke-width="1" stroke-miterlimit="10" d="M33.284,184.387l18.292-12.136
					C48.305,179.25,41.394,184.2,33.284,184.387z"/>
			</g>
		</g>
	</g>
</g>
</svg>
