<?xml version="1.0" encoding="utf-8"?>
<!-- Generator: Adobe Illustrator 16.0.0, SVG Export Plug-In . SVG Version: 6.00 Build 0)  -->
<!DOCTYPE svg PUBLIC "-//W3C//DTD SVG 1.1//EN" "http://www.w3.org/Graphics/SVG/1.1/DTD/svg11.dtd">
<svg class="iconoHome" version="1.1" id="home" xmlns="http://www.w3.org/2000/svg" xmlns:xlink="http://www.w3.org/1999/xlink" x="0px" y="0px"
	 width="295px" height="383px" viewBox="0 0 295 383" enable-background="new 0 0 295 383" xml:space="preserve">
<path id="home" fill="none" stroke-width="12" stroke-miterlimit="10" d="M187.045,116.638V98.026h45.864v63.812
	l45.865,41.656c0,0,4.433,9.305-4.431,9.305c-8.864,0-31.02,0-31.02,0v91.948c0,0,0,9.305-9.859,9.084
	c-9.861-0.221-51.515,0.004-51.515,0.004s-5.982-1.554-5.982-11.747c0-10.192,0-49.188,0-49.188s1.552-6.646-14.624-6.646
	c-16.175,0-31.906,0.223-31.906,0.223s-6.868,0-6.868,6.646c0,6.647,0,52.068,0,52.068s1.993,8.648-5.983,8.645
	c-7.976-0.004-55.17,0-55.17,0s-6.647-1.111-6.647-8.423s0-87.298,0-87.298v-5.982H25.081c0,0-10.192-4.874,0-13.959
	S148.492,84.734,148.492,84.734l9.307,7.533L187.045,116.638z"/>
</svg>
