<?xml version="1.0" encoding="utf-8"?>
<!-- Generator: Adobe Illustrator 16.0.0, SVG Export Plug-In . SVG Version: 6.00 Build 0)  -->
<!DOCTYPE svg PUBLIC "-//W3C//DTD SVG 1.1//EN" "http://www.w3.org/Graphics/SVG/1.1/DTD/svg11.dtd">
<svg version="1.1" id="Layer_1" xmlns="http://www.w3.org/2000/svg" xmlns:xlink="http://www.w3.org/1999/xlink" x="0px" y="0px"
	 width="295px" height="383px" viewBox="0 0 295 383" enable-background="new 0 0 295 383" xml:space="preserve">
<g>
	<g>
		<path fill="none" stroke-width="7" d="M226.321,112.156c0.614,0.253,0.819,0.411,1.025,0.413c5.351,0.038,10.702,0.052,16.053,0.083
			c4.318,0.025,5.271,0.979,5.271,5.374c0.004,67.245,0.004,134.489,0,201.734c0,4.385-0.978,5.398-5.26,5.398
			c-63.524,0.007-127.052,0.008-190.578,0.001c-4.591,0-5.506-0.894-5.506-5.505c-0.01-67.248-0.011-134.498-0.003-201.747
			c0.001-4.307,0.99-5.252,5.389-5.267c5.546-0.019,11.093-0.005,16.706-0.005c0-11.269,0-22.127,0-33.209
			c-6.75,0-13.25-0.012-19.75,0.002c-15.279,0.033-24.38,9.061-24.382,24.263c-0.013,76.905-0.012,153.812,0,230.717
			c0.002,14.678,9.286,23.954,23.985,23.957c65.62,0.015,131.241-0.003,196.86,0.018c15.339,0.005,24.607-9.199,24.597-24.449
			c-0.024-36.066-0.003-72.135-0.004-108.203c-0.001-41.187,0.015-82.374-0.021-123.561c-0.011-12.999-9.772-22.7-22.75-22.751
			c-6.166-0.024-12.332-0.006-18.5,0.019c-0.995,0.004-1.987,0.142-3.129,0.229c0,7.414,0,14.504,0,21.597
			C226.321,104.864,226.321,108.467,226.321,112.156z"/>
		<path fill="none" d="M226.037,146.731c-1.893,1.173-3.088,1.882-4.252,2.641c-10.418,6.793-20.906,13.486-31.196,20.469
			c-2.674,1.815-4.496,1.711-7.077-0.046c-7.01-4.78-14.266-9.19-21.325-13.897c-1.86-1.238-3.137-1.16-4.937,0.12
			c-10.043,7.144-20.214,14.103-30.253,21.25c-1.868,1.33-3.004,1.297-4.708-0.276c-6.916-6.397-13.977-12.636-20.998-18.919
			c-1.353-1.21-2.765-2.354-4.234-3.6c-8.74,7.501-17.25,14.719-25.612,22.106c-0.93,0.82-1.411,2.598-1.424,3.939
			c-0.112,10.934-0.068,21.87-0.054,32.803c0.001,0.737,0.145,1.472,0.276,2.72c9.206-7.894,18.003-15.437,26.912-23.075
			c8.393,7.386,16.578,14.442,24.565,21.714c2.089,1.902,3.448,2.166,5.86,0.452c9.855-7.003,19.911-13.72,29.829-20.634
			c1.672-1.164,2.916-1.215,4.655-0.111c7.359,4.668,14.854,9.124,22.211,13.797c1.985,1.26,3.466,1.426,5.563,0.074
			c8.5-5.477,17.144-10.727,25.725-16.076c3.448-2.149,8.19-3.604,9.937-6.724c1.744-3.12,0.519-7.924,0.531-11.989
			C226.055,164.786,226.037,156.103,226.037,146.731z"/>
		<path fill="none" d="M226.039,199.4c-1.677,0.994-2.771,1.618-3.84,2.281c-10.767,6.669-21.559,13.297-32.269,20.056
			c-2.01,1.269-3.502,1.442-5.604,0.083c-7.124-4.6-14.449-8.888-21.588-13.466c-1.974-1.266-3.341-1.233-5.265,0.111
			c-10.194,7.122-20.49,14.098-30.754,21.117c-1.021,0.698-2.076,1.346-3.156,2.044c-8.956-7.881-17.66-15.544-26.503-23.327
			c-6.827,5.847-13.142,11.912-20.142,17.042c-5.559,4.073-7.918,8.665-7.073,15.512c0.59,4.783,1.107,5.815,6.087,5.817
			c24.77,0.011,49.54,0.014,74.309,0.016c23.375,0.002,46.748,0.005,70.123-0.005c4.099-0.001,5.628-1.087,5.646-4.431
			C226.081,228.193,226.039,214.134,226.039,199.4z"/>
		<path fill="none" d="M147.872,302.522c0,0.004,0,0.01,0,0.014c24.427,0,48.852,0.005,73.278-0.004
			c4.619-0.002,4.891-0.33,4.896-5.417c0.008-5.133-0.253-5.454-4.838-5.457c-23.96-0.014-47.923-0.015-71.881-0.015
			c-24.891,0-49.783-0.006-74.674,0.05c-1.31,0.002-3.628,0.335-3.755,0.9c-0.589,2.629-0.973,5.459-0.54,8.071
			c0.14,0.85,2.978,1.772,4.585,1.78C99.255,302.558,123.563,302.522,147.872,302.522z"/>
		<path fill="none" d="M147.983,269.311c-24.311,0-48.623,0.001-72.936,0c-4.756-0.001-5.097,0.313-5.097,4.813
			c-0.001,5.932,0.115,6.07,5.281,6.071c13.494,0.002,26.987,0,40.48-0.001c35.131-0.004,70.261,0.003,105.392-0.054
			c1.413-0.003,3.909-0.376,4.052-0.999c0.599-2.624,0.896-5.48,0.422-8.092c-0.151-0.833-3.026-1.655-4.659-1.664
			C196.607,269.283,172.296,269.314,147.983,269.311z"/>
		<path fill="none" stroke-width="7" d="M226.321,112.156c0-3.689,0-7.291,0-10.893c0-7.092,0-14.183,0-21.597c1.142-0.087,2.135-0.225,3.129-0.229
			c6.168-0.024,12.334-0.042,18.5-0.019c12.978,0.051,22.739,9.752,22.75,22.751c0.037,41.187,0.021,82.374,0.021,123.561
			c0.001,36.068-0.021,72.137,0.004,108.203c0.011,15.25-9.258,24.454-24.597,24.449c-65.619-0.021-131.24-0.003-196.86-0.018
			c-14.7-0.004-23.983-9.279-23.985-23.957c-0.011-76.905-0.012-153.812,0-230.717c0.002-15.202,9.104-24.229,24.382-24.263
			c6.5-0.014,13-0.002,19.75-0.002c0,11.082,0,21.94,0,33.209c-5.612,0-11.159-0.015-16.706,0.005
			c-4.399,0.015-5.388,0.96-5.389,5.267c-0.008,67.249-0.007,134.499,0.003,201.747c0,4.61,0.915,5.505,5.506,5.505
			c63.526,0.007,127.054,0.006,190.578-0.001c4.282,0,5.26-1.014,5.26-5.398c0.004-67.244,0.004-134.489,0-201.734
			c0-4.395-0.952-5.349-5.271-5.374c-5.351-0.031-10.702-0.044-16.053-0.083C227.141,112.567,226.936,112.409,226.321,112.156z"/>
		<path fill="#868b90" d="M226.037,146.731c0,9.372,0.018,18.055-0.008,26.737c-0.013,4.065,1.214,8.869-0.531,11.989s-6.487,4.574-9.936,6.726
			c-8.581,5.348-17.226,10.6-25.725,16.074c-2.099,1.352-3.578,1.186-5.564-0.074c-7.355-4.673-14.851-9.129-22.21-13.797
			c-1.74-1.104-2.983-1.053-4.656,0.111c-9.917,6.914-19.975,13.631-29.829,20.634c-2.412,1.713-3.77,1.45-5.86-0.452
			c-7.986-7.271-16.171-14.328-24.565-21.714c-8.908,7.638-17.705,15.182-26.912,23.075c-0.131-1.248-0.274-1.982-0.275-2.72
			c-0.014-10.934-0.058-21.87,0.054-32.802c0.014-1.342,0.494-3.12,1.424-3.94c8.361-7.387,16.871-14.605,25.611-22.106
			c1.469,1.247,2.882,2.39,4.234,3.6c7.021,6.283,14.082,12.521,20.998,18.919c1.704,1.575,2.84,1.607,4.708,0.276
			c10.039-7.147,20.21-14.107,30.253-21.25c1.799-1.28,3.077-1.358,4.938-0.12c7.058,4.707,14.315,9.119,21.325,13.897
			c2.579,1.758,4.401,1.862,7.076,0.046c10.291-6.983,20.779-13.676,31.197-20.469C222.949,148.613,224.145,147.905,226.037,146.731
			z"/>
		<path fill="#868b90" d="M226.039,199.4c0,14.733,0.042,28.792-0.028,42.852c-0.019,3.344-1.548,4.43-5.646,4.431
			c-23.375,0.009-46.748,0.007-70.123,0.005c-24.769-0.003-49.539-0.006-74.309-0.016c-4.981-0.003-5.497-1.034-6.088-5.818
			c-0.845-6.846,1.515-11.438,7.073-15.511c6.999-5.131,13.314-11.195,20.141-17.041c8.844,7.782,17.548,15.444,26.504,23.326
			c1.082-0.699,2.136-1.347,3.156-2.044c10.265-7.021,20.561-13.996,30.755-21.118c1.923-1.344,3.291-1.377,5.265-0.11
			c7.139,4.578,14.463,8.866,21.587,13.465c2.104,1.359,3.597,1.186,5.606-0.083c10.709-6.759,21.5-13.387,32.268-20.056
			C223.269,201.019,224.362,200.395,226.039,199.4z"/>
		<path fill="#868b90" d="M147.872,302.522c-24.309,0-48.619,0.035-72.928-0.078c-1.608-0.008-4.445-0.931-4.585-1.779
			c-0.433-2.612-0.049-5.442,0.54-8.072c0.127-0.564,2.446-0.897,3.755-0.9c24.891-0.057,49.783-0.05,74.674-0.05
			c23.958,0,47.921,0.002,71.881,0.015c4.584,0.004,4.846,0.325,4.838,5.457c-0.006,5.087-0.276,5.415-4.896,5.417
			c-24.427,0.009-48.852,0.005-73.278,0.005C147.872,302.532,147.872,302.526,147.872,302.522z"/>
		<path fill="#868b90" d="M147.983,269.313c24.312,0.002,48.624-0.029,72.936,0.074c1.633,0.008,4.509,0.83,4.659,1.663
			c0.475,2.611,0.178,5.469-0.422,8.093c-0.143,0.622-2.638,0.996-4.051,0.998c-35.131,0.057-70.262,0.05-105.392,0.054
			c-13.494,0.001-26.987,0.004-40.481,0.001c-5.167,0-5.283-0.138-5.281-6.07c0.001-4.501,0.34-4.814,5.097-4.814
			C99.36,269.312,123.672,269.311,147.983,269.313z"/>
	</g>
	<path fill="none" stroke-width="12" d="M214.854,80.447c-0.03-7.803-4.556-12.193-12.475-12.196c-6.847-0.003-13.69,0-20.793,0
		c-1.76-23.286-18.671-32.952-32.432-33.479c-13.768-0.527-32.725,8.572-34.856,33.474c-7.03,0-14.098-0.027-21.165,0.007
		c-7.375,0.035-11.986,4.619-12.009,11.975c-0.033,10.468-0.028,20.936,0.013,31.401c0.029,7.642,4.55,12.177,12.145,12.18
		c36.519,0.015,73.039,0.018,109.559,0.001c7.36-0.004,12.003-4.632,12.025-11.961C214.9,101.382,214.895,90.914,214.854,80.447z
		 M146.599,75.787c-6.939,0-12.566-5.47-12.566-12.217s5.626-12.217,12.566-12.217c6.94,0,12.565,5.47,12.565,12.217
		S153.539,75.787,146.599,75.787z"/>
</g>
</svg>
