<?xml version="1.0" encoding="utf-8"?>
<!-- Generator: Adobe Illustrator 16.0.0, SVG Export Plug-In . SVG Version: 6.00 Build 0)  -->
<!DOCTYPE svg PUBLIC "-//W3C//DTD SVG 1.1//EN" "http://www.w3.org/Graphics/SVG/1.1/DTD/svg11.dtd">
<svg class="iconoMaquinas" version="1.1" id="Layer_1" xmlns="http://www.w3.org/2000/svg" xmlns:xlink="http://www.w3.org/1999/xlink" x="0px" y="0px"
	 width="295px" height="383px" viewBox="0 0 295 383" enable-background="new 0 0 295 383" xml:space="preserve">
<g>
	<g>
		<path fill="none" stroke-width="7" d="M3.465,303.894c1.524-8.545,3.825-15.672,3.895-22.819c0.372-37.188,0.173-74.383,0.173-111.576
			c0-2.972,0-5.944,0-9.878c17.543,0,34.59,0,52.287,0c0-5.77,0-10.581,0-16.589c13.919,0,27.198,0,40.479,0
			c4.103,0,8.28,0.471,12.277-0.178c2.409-0.391,5.613-1.989,6.601-3.971c4.314-8.67,10.726-13.878,20.543-13.619
			c9.796,0.257,16.232,5.61,19.663,14.699c0.287,0.759,0.73,1.46,1.486,2.95c20.551,0,41.461,0,63.03,0c0,5.566,0,10.39,0,16.169
			c15.498,0,30.364,0,45.909,0c0,17.78,0,34.621,0,51.499c4.877,2.436,6.974,1.626,6.943-3.612
			c-0.098-16.408,0.061-32.817-0.149-49.224c-0.03-2.191-2.35-4.381-2.302-6.541c0.084-3.759-0.031-8.925,2.209-10.831
			c2.166-1.84,8.52-1.758,10.604,0.14c2.162,1.975,1.764,7.141,1.791,10.914c0.019,1.908-2.192,3.82-2.213,5.744
			c-0.188,17.228-0.191,34.458-0.004,51.683c0.021,1.91,1.156,4.178,2.48,5.639c4.284,4.717,6.769,10.638,2.931,15.553
			c-3.071,3.937-8.993,5.852-13.925,8.043c-2.011,0.892-4.746,0.147-8.735,0.147c0.877,22.023,1.728,43.347,2.615,65.662
			c-2.071,0-4.987,0-7.904,0c-26.251,0-52.507-0.136-78.757,0.152c-3.787,0.042-7.832,1.581-11.281,3.351
			c-22.811,11.702-45.48,11.651-68.391,0.255c-3.932-1.953-8.532-3.54-12.843-3.594c-26.249-0.327-52.504-0.164-78.758-0.164
			C11.161,303.894,8.207,303.894,3.465,303.894z M24.638,176.163c0,28.833,0,56.753,0,84.573c24.054,0,47.416,0,71.007,0
			c0-28.419,0-56.355,0-84.573C71.739,176.163,48.362,176.163,24.638,176.163z M103.418,176.16c0,28.825,0,56.747,0,84.581
			c24.049,0,47.41,0,71.019,0c0-28.413,0-56.35,0-84.581C150.536,176.16,127.16,176.16,103.418,176.16z M253.219,261.012
			c0-28.694,0-56.631,0-84.547c-24.093,0-47.657,0-71.007,0c0,28.528,0,56.452,0,84.547
			C206.06,261.012,229.219,261.012,253.219,261.012z M172.597,294.555c-10.414-10.984-55.998-10.894-65.754,0.136
			C117.344,305.807,162.56,305.715,172.597,294.555z"/>
	</g>
	<g>
		<path fill="#868b90" stroke-width="1" d="M43.877,194.225v21.972h6.38v-6.849c0,0,1.892-8.273,7.089-7.091c5.197,1.185,4.251,3.782,10.633,2.954
			c0,0-19.607,21.383-18.429,38.16h13.941v-7.797c0,0,4.251-24.572,12.993-29.063l1.419-11.34h-5.433v4.014
			c0,0-2.133,1.182-11.58-4.96c0,0-8.268-1.183-9.212,4.487c0,0-2.362,0.945-3.308-2.125
			C47.421,193.512,43.877,194.225,43.877,194.225z"/>
		<path fill="none" stroke-width="1" d="M64.312,244.19H48.785l-0.053-0.765c-1.021-14.518,12.816-31.992,17.295-37.238
			c-2.571,0.068-3.761-0.686-4.993-1.465c-0.957-0.604-1.945-1.229-3.869-1.667c-0.278-0.063-0.552-0.097-0.815-0.097
			c-3.502,0-5.075,5.719-5.271,6.486v7.57h-8.021v-23.462l0.66-0.136c0,0,0.418-0.088,1.029-0.088c2.212,0,3.819,1.1,4.408,3.014
			c0.362,1.182,1.075,1.746,1.832,1.678c0.786-3.01,3.722-4.723,8.154-4.723c1.08,0,1.835,0.107,1.866,0.111l0.333,0.123
			c6.353,4.131,9.226,4.834,10.313,4.912v-4.098h7.184l-1.59,12.693l-0.386,0.199c-8.281,4.253-12.517,28.229-12.56,28.471
			L64.312,244.19z M50.33,242.549h12.34v-6.977c0.186-1.145,4.314-24.479,13.053-29.58l1.252-10.003h-3.684v3.678l-0.424,0.235
			c-0.131,0.072-0.434,0.192-1.002,0.192c-1.559,0-4.779-0.886-11.261-5.081c-1.124-0.117-7.381-0.584-8.117,3.832l-0.076,0.457
			l-0.428,0.17c-0.083,0.034-0.521,0.195-1.125,0.195c-0.895,0-2.512-0.367-3.273-2.84c-0.383-1.246-1.402-1.885-2.886-1.854v20.401
			h4.739l0.022-6.212c0.072-0.32,1.852-7.845,6.892-7.845c0.385,0,0.782,0.046,1.179,0.137c2.2,0.501,3.409,1.267,4.383,1.882
			c1.113,0.703,1.918,1.213,3.873,1.213c0.612,0,1.295-0.051,2.088-0.153l2.231-0.29l-1.521,1.658
			C68.393,205.972,49.822,226.428,50.33,242.549z"/>
	</g>
	<g>
		<path fill="#868b90" stroke-width="1" d="M123.493,194.225v21.972h6.381v-6.849c0,0,1.891-8.273,7.088-7.091c5.199,1.185,4.253,3.782,10.634,2.954
			c0,0-19.609,21.383-18.429,38.16h13.94v-7.797c0,0,4.251-24.572,12.994-29.063l1.419-11.34h-5.435v4.014
			c0,0-2.133,1.182-11.58-4.96c0,0-8.267-1.183-9.212,4.487c0,0-2.362,0.945-3.308-2.125
			C127.038,193.512,123.493,194.225,123.493,194.225z"/>
		<path fill="none" stroke-width="1" d="M143.928,244.19h-15.527l-0.052-0.765c-1.021-14.518,12.816-31.992,17.294-37.238
			c-2.573,0.047-3.759-0.686-4.992-1.465c-0.957-0.604-1.946-1.229-3.87-1.667c-0.277-0.063-0.551-0.097-0.814-0.097
			c-3.503,0-5.075,5.719-5.271,6.486v7.57h-8.022v-23.462l0.66-0.136c0,0,0.419-0.088,1.029-0.088c2.212,0,3.819,1.1,4.408,3.014
			c0.343,1.117,0.917,1.684,1.705,1.684c0.043,0,0.086-0.002,0.127-0.006c0.787-3.01,3.722-4.723,8.154-4.723
			c1.08,0,1.835,0.107,1.866,0.111l0.332,0.123c6.353,4.131,9.226,4.834,10.313,4.912v-4.098h7.185l-1.59,12.693l-0.385,0.199
			c-8.282,4.253-12.517,28.229-12.559,28.471L143.928,244.19z M129.946,242.549h12.34v-6.977c0.185-1.145,4.315-24.479,13.051-29.58
			l1.251-10.003h-3.68v3.678l-0.425,0.235c-0.132,0.072-0.435,0.192-1.002,0.192c-1.562,0-4.777-0.886-11.263-5.081
			c-1.123-0.117-7.38-0.584-8.117,3.832l-0.075,0.457l-0.428,0.17c-0.083,0.034-0.521,0.195-1.124,0.195
			c-0.896,0-2.513-0.367-3.274-2.84c-0.384-1.246-1.415-1.885-2.886-1.854v20.401h4.74l0.021-6.212
			c0.073-0.32,1.853-7.845,6.893-7.845c0.385,0,0.782,0.046,1.179,0.137c2.2,0.501,3.411,1.267,4.383,1.882
			c1.115,0.703,1.918,1.213,3.872,1.213c0.612,0,1.296-0.051,2.089-0.153l2.231-0.29l-1.521,1.658
			C148.01,205.972,129.439,226.428,129.946,242.549z"/>
	</g>
	<g>
		<path fill="#868b90" stroke-width="1" d="M201.333,194.225v21.972h6.381v-6.849c0,0,1.891-8.273,7.089-7.091c5.197,1.185,4.251,3.782,10.632,2.954
			c0,0-19.607,21.383-18.43,38.16h13.941v-7.797c0,0,4.252-24.572,12.994-29.063l1.418-11.34h-5.436v4.014
			c0,0-2.132,1.182-11.579-4.96c0,0-8.269-1.183-9.212,4.487c0,0-2.364,0.945-3.309-2.125
			C204.876,193.512,201.333,194.225,201.333,194.225z"/>
		<path fill="none" stroke-width="1" d="M221.767,244.19H206.24l-0.054-0.765c-1.021-14.518,12.816-31.992,17.296-37.238
			c-2.565,0.047-3.758-0.688-4.992-1.465c-0.956-0.604-1.946-1.229-3.87-1.667c-0.275-0.063-0.552-0.097-0.811-0.097
			c-3.505,0-5.079,5.719-5.275,6.486v7.57h-8.021v-23.462l0.658-0.136c0,0,0.421-0.088,1.029-0.088c2.211,0,3.817,1.1,4.407,3.012
			c0.366,1.18,1.026,1.746,1.833,1.68c0.787-3.01,3.721-4.723,8.155-4.723c1.08,0,1.837,0.107,1.865,0.111l0.334,0.123
			c6.351,4.131,9.224,4.834,10.312,4.912v-4.098h7.182l-1.589,12.693l-0.384,0.199c-8.281,4.253-12.516,28.229-12.56,28.471
			L221.767,244.19z M207.784,242.549h12.342v-6.977c0.186-1.145,4.314-24.479,13.051-29.58l1.252-10.003h-3.681v3.678l-0.425,0.235
			c-0.133,0.072-0.436,0.192-1.002,0.192c-1.562,0-4.777-0.886-11.261-5.081c-1.123-0.117-7.381-0.583-8.118,3.832l-0.076,0.457
			l-0.429,0.17c-0.083,0.034-0.521,0.195-1.124,0.195c-0.898,0-2.515-0.367-3.273-2.84c-0.379-1.232-1.334-1.857-2.838-1.857
			c-0.014,0-0.031,0-0.045,0v20.402h4.739l0.021-6.211c0.074-0.32,1.852-7.844,6.893-7.844c0.385,0,0.781,0.046,1.18,0.136
			c2.197,0.502,3.408,1.267,4.381,1.883c1.115,0.703,1.919,1.212,3.872,1.212c0.612,0,1.295-0.051,2.089-0.152l2.229-0.291
			l-1.521,1.658C225.849,205.972,207.276,226.428,207.784,242.549z"/>
	</g>
</g>
</svg>
