<?xml version="1.0" encoding="utf-8"?>
<!-- Generator: Adobe Illustrator 16.0.0, SVG Export Plug-In . SVG Version: 6.00 Build 0)  -->
<!DOCTYPE svg PUBLIC "-//W3C//DTD SVG 1.1//EN" "http://www.w3.org/Graphics/SVG/1.1/DTD/svg11.dtd">
<svg class="iconoMesa" version="1.1" id="mesa" xmlns="http://www.w3.org/2000/svg" xmlns:xlink="http://www.w3.org/1999/xlink" x="0px" y="0px"
	 width="295px" height="383px" viewBox="0 0 295 383" enable-background="new 0 0 295 383" xml:space="preserve">
<g>
	<path fill="none" stroke="#868b90" stroke-width="13" stroke-miterlimit="10" d="M109.701,72.517l-91.34,71.215
		c0,0-18.062,6.71,29.932,14.451c47.992,7.741,119.725,24.254,119.725,24.254l91.862-90.827c0,0,7.222-4.642-21.162-10.321
		C210.331,75.612,130.862,63.745,109.701,72.517z"/>
	<path fill="none" stroke="#868b90" stroke-width="13" stroke-miterlimit="10" d="M15.111,146.628c0,0-9.65,14.133,28.538,145.212
		c0,0,84.632,46.963,147.59,43.35l-23.222-152.753"/>
	<path fill="none" stroke="#868b90" stroke-width="13" stroke-miterlimit="10" d="M260.699,88.515c0,0,18.272,28.899,19.301,147.591
		c0,0-29.932,57.281-88.762,99.083"/>
	<path d="M114.541,238.494c4.515,7.765,2.806,17.149-3.775,20.955c-6.579,3.798-15.547,0.605-20.054-7.151
		c-4.507-7.772-2.796-17.152,3.784-20.958S110.042,230.737,114.541,238.494z"/>
	<path d="M164.146,288.099c4.517,7.765,2.805,17.149-3.774,20.958c-6.578,3.798-15.545,0.603-20.052-7.154
		c-4.51-7.771-2.799-17.149,3.779-20.955C150.68,277.142,159.646,280.342,164.146,288.099z"/>
	<path d="M239.229,211.53c0.014,10.118-4.79,18.304-10.676,18.296c-5.891-0.008-10.654-8.193-10.663-18.307
		c0-10.118,4.792-18.295,10.688-18.295C234.466,193.232,239.229,201.418,239.229,211.53z"/>
	<path d="M72.514,126.081c10.063-1.056,18.701,2.87,19.295,8.725c0.604,5.871-7.047,11.451-17.1,12.506
		c-10.071,1.041-18.702-2.887-19.306-8.748C54.808,132.709,62.449,127.122,72.514,126.081z"/>
	<path d="M136.771,110.084c10.063-1.057,18.698,2.871,19.296,8.725c0.605,5.869-7.048,11.449-17.104,12.505
		c-10.069,1.039-18.696-2.887-19.302-8.749C119.063,116.711,126.709,111.123,136.771,110.084z"/>
	<path d="M200.353,95.126c10.059-1.057,18.7,2.871,19.291,8.724c0.61,5.871-7.043,11.451-17.099,12.508
		c-10.073,1.039-18.701-2.887-19.305-8.75C182.643,101.753,190.29,96.165,200.353,95.126z"/>
	<path d="M88.222,264.811c4.515,7.768,2.806,17.152-3.774,20.958c-6.581,3.798-15.544,0.605-20.054-7.151
		c-4.507-7.774-2.798-17.152,3.782-20.958C74.755,253.854,83.723,257.054,88.222,264.811z"/>
	<path d="M145.827,207.208c4.515,7.765,2.806,17.149-3.774,20.955c-6.58,3.798-15.547,0.605-20.054-7.151
		c-4.507-7.772-2.798-17.15,3.781-20.958C132.361,196.248,141.327,199.451,145.827,207.208z"/>
	<path d="M67.281,191.231c4.516,7.767,2.806,17.153-3.773,20.958c-6.58,3.799-15.547,0.605-20.054-7.15
		c-4.507-7.774-2.799-17.152,3.782-20.958C53.816,180.276,62.783,183.476,67.281,191.231z"/>
</g>
</svg>
