<?xml version="1.0" encoding="utf-8"?>
<!-- Generator: Adobe Illustrator 16.0.0, SVG Export Plug-In . SVG Version: 6.00 Build 0)  -->
<!DOCTYPE svg PUBLIC "-//W3C//DTD SVG 1.1//EN" "http://www.w3.org/Graphics/SVG/1.1/DTD/svg11.dtd">
<svg class="iconoSalida" version="1.1" id="Layer_1" xmlns="http://www.w3.org/2000/svg" xmlns:xlink="http://www.w3.org/1999/xlink" x="0px" y="0px"
	 width="32px" height="212px" viewBox="0 0 612 792" enable-background="new 0 0 612 792" xml:space="preserve">
<path fill-rule="evenodd" clip-rule="evenodd" d="M416.493,401.568c-0.007,57.812-0.005,115.622-0.012,173.433
	c0,3.498-0.01,6.999-0.125,10.495c-0.197,5.987-1.823,7.946-7.686,9.276c-37.122,8.421-74.251,16.818-111.374,25.236
	c-24.966,5.661-49.925,11.356-74.894,17.006c-7.361,1.666-10.881-1.199-10.908-9.08c-0.075-22.493-0.05-44.987-0.05-67.48
	c-0.002-98.972,0.004-197.944-0.002-296.917c0-9.031,1.134-10.491,9.972-12.503c60.784-13.839,121.568-27.68,182.352-41.519
	c9.142-2.082,12.701,0.485,12.702,9.126c0.009,59.31,0.021,118.62,0.031,177.93C416.501,398.237,416.5,399.903,416.493,401.568z
	 M230.08,423.107c1.233,3.604,1.907,7.281,3.664,10.334c3.2,5.56,8.793,5.445,12.403,0.156c3.853-5.645,3.887-15.129,0.075-20.84
	c-3.551-5.32-9.208-5.525-12.416-0.042C232.028,415.758,231.349,419.441,230.08,423.107z"/>
<path fill-rule="evenodd" clip-rule="evenodd" d="M424.839,200.829c-78.761,0-156.896,0-235.982,0c0,3.067,0,5.974,0,8.881
	c0,126.989,0,253.978-0.002,380.966c0,8.983-0.418,9.408-9.22,9.428c-8.333,0.018-16.665,0.028-24.998,0.026
	c-6.872-0.002-7.862-0.9-7.868-7.788c-0.039-42.829-0.039-85.658-0.04-128.488c-0.002-98.157,0.002-196.313,0.003-294.471
	c0-1.167-0.051-2.334-0.008-3.5c0.216-5.93,1.964-7.672,7.925-7.676c26.165-0.021,52.329-0.005,78.493-0.004
	c75.327,0.004,150.654,0.003,225.981,0.019c6.974,0.001,8.138,1.177,8.138,8.171c-0.003,141.32-0.013,282.639-0.036,423.959
	c-0.002,9.553-0.209,9.715-9.91,9.753c-7.832,0.03-15.665,0.025-23.497,0.036c-7.852,0.011-8.679-0.749-8.68-8.482
	c-0.014-81.993-0.011-163.985-0.012-245.978c-0.001-46.663,0.001-93.325-0.012-139.988
	C425.113,204.231,424.953,202.768,424.839,200.829z"/>
</svg>
