<?xml version="1.0" encoding="utf-8"?>
<!-- Generator: Adobe Illustrator 16.0.0, SVG Export Plug-In . SVG Version: 6.00 Build 0)  -->
<!DOCTYPE svg PUBLIC "-//W3C//DTD SVG 1.1//EN" "http://www.w3.org/Graphics/SVG/1.1/DTD/svg11.dtd">
<svg class="iconoTableroControl" version="1.1" id="Layer_1" xmlns="http://www.w3.org/2000/svg" xmlns:xlink="http://www.w3.org/1999/xlink" x="0px" y="0px"
	 width="295px" height="383px" viewBox="0 0 295 383" enable-background="new 0 0 295 383" xml:space="preserve">
<g>
	<path fill="#868b90" d="M90.166,189.602c0,11.29-0.08,22.584,0.049,33.875c0.038,3.303-1.165,4.515-4.446,4.328
		c-3.826-0.217-7.673-0.102-11.508-0.042c-2.376,0.038-3.309-1.009-3.304-3.379c0.042-23.242,0.05-46.484-0.004-69.727
		c-0.005-2.596,1.147-3.543,3.565-3.519c3.836,0.036,7.678,0.118,11.509-0.035c3.152-0.125,4.234,1.205,4.204,4.293
		c-0.11,11.401-0.044,22.803-0.044,34.206C90.18,189.602,90.173,189.602,90.166,189.602z"/>
	<path fill="#868b90" d="M59.613,204.579c0,6.354-0.122,12.713,0.052,19.063c0.088,3.201-1.172,4.305-4.258,4.169
		c-3.828-0.167-7.67-0.111-11.502-0.019c-2.318,0.058-3.516-0.834-3.514-3.212c0.005-13.258,0.012-26.517-0.01-39.774
		c-0.004-2.343,1.094-3.384,3.41-3.362c4.054,0.038,8.109,0.048,12.162-0.009c2.608-0.038,3.746,1.042,3.699,3.749
		C59.536,191.647,59.613,198.112,59.613,204.579z"/>
	<path fill="none" stroke-width="9" d="M177.478,282.67c0.138,5.876,2.267,10.554,5.836,14.602c5.683,6.444,13.26,9.034,21.45,10.367
		c5.95,0.969,8.947,5.342,7.01,10.187c-1.341,3.354-3.959,4.736-7.513,4.729c-14.82-0.028-29.639,0.002-44.457,0.002
		c-23.271-0.001-46.542,0.004-69.813-0.025c-4.529-0.006-7.462-2.385-7.922-6.24c-0.483-4.048,1.502-7.104,5.472-8.144
		c3.702-0.969,7.556-1.464,11.152-2.715c9.135-3.184,15.718-9.016,18.023-18.82c0.268-1.141,0.322-2.333,0.529-3.903
		c-1.684-0.08-3.059-0.201-4.435-0.203c-27.333-0.01-54.666-0.005-81.998-0.006c-11.796,0-18.628-6.729-18.633-18.515
		c-0.021-56.859,0.141-113.72-0.119-170.577C11.998,80.082,22.51,72.221,33.33,72.258c75.959,0.26,151.92,0.139,227.881,0.136
		c13.37,0,21.246,7.82,21.26,21.253c0.027,26.784,0.007,53.567,0.004,80.35c-0.003,29.748-0.263,59.498,0.12,89.24
		c0.148,11.509-7.861,19.588-19.378,19.409c-27.326-0.426-54.664-0.146-81.995-0.142
		C180.139,282.504,179.058,282.597,177.478,282.67z M147.33,240.785c36.885,0,73.771-0.007,110.656,0.005
		c8.646,0.002,8.691-0.028,8.69-8.496c-0.008-45.23-0.013-90.46-0.013-135.69c-0.001-8.393-0.048-8.474-8.38-8.474
		c-74.762-0.006-149.521-0.004-224.283-0.002c-5.118,0-6.047,0.967-6.047,6.196c0,46.658,0,93.313,0,139.972
		c0,5.706,0.734,6.482,6.411,6.484C72.02,240.791,109.674,240.785,147.33,240.785z M137.439,263.243
		c-0.035,5.298,4.476,9.917,9.763,9.997c5.237,0.081,9.905-4.488,9.987-9.771c0.08-5.246-4.437-9.86-9.775-9.984
		C142.198,253.363,137.475,257.985,137.439,263.243z"/>
	<path fill="#868b90" d="M206.589,103.929c0,3.978,0.004,8.003,0,12.029c-0.005,6.361,0.119,12.725-0.08,19.08c-0.085,2.647,0.71,3.832,3.325,4.59
		c9.142,2.649,18.2,5.585,27.289,8.417c0.929,0.289,1.849,0.618,2.758,0.925c-4.192,16.156-22.679,27.233-39.411,23.746
		c-19.134-3.988-30.71-20.584-27.986-40.125C174.725,116.505,191.134,102.528,206.589,103.929z"/>
	<path fill="#868b90" d="M120.834,173.419c0,16.577,0.004,33.153-0.002,49.73c-0.002,4.291-0.282,4.576-4.417,4.602
		c-3.183,0.016-6.367,0.023-9.55,0.006c-5.371-0.03-5.42-0.093-5.419-5.637c0.001-12.954-0.001-25.908,0.001-38.863
		c0.003-19.54,0.008-39.081,0.017-58.622c0.002-5.278,0.177-5.453,5.287-5.458c3.184-0.004,6.367-0.013,9.55,0.002
		c4.153,0.018,4.542,0.397,4.544,4.508c0.007,16.576,0.002,33.153,0.002,49.729C120.844,173.419,120.839,173.419,120.834,173.419z"
		/>
	<path fill="#868b90" d="M132.187,187.19c0-12.067,0.072-24.133-0.049-36.199c-0.032-3.147,1.078-4.367,4.232-4.2
		c3.609,0.191,7.247,0.216,10.854,0.005c3.271-0.19,4.148,1.232,4.132,4.276c-0.089,16.344-0.033,32.69-0.029,49.033
		c0.004,7.898-0.082,15.796,0.047,23.693c0.049,3.001-1.069,4.149-4.063,4.011c-3.722-0.173-7.464-0.173-11.186,0
		c-3.065,0.142-3.994-1.154-3.967-4.093c0.108-12.175,0.045-24.351,0.045-36.527C132.197,187.19,132.192,187.19,132.187,187.19z"/>
	<path fill="#868b90" d="M213.044,99.921c10.975,0.161,19.843,4.689,26.575,13.239c7.336,9.318,9.007,19.854,5.986,31.589
		c-10.756-3.339-21.195-6.549-31.596-9.882c-0.653-0.209-1.427-1.368-1.432-2.089c-0.074-10.537-0.03-21.076,0.005-31.614
		C212.585,100.866,212.798,100.568,213.044,99.921z"/>
	<path fill="#868b90" stroke-width="3" d="M247.697,209.16c-26.387,0-52.449,0-78.9,0c0-1.707,0.083-3.215-0.021-4.71c-0.151-2.202,0.872-2.798,2.943-2.783
		c9.546,0.072,19.091,0.021,28.64,0.021c14.266,0,28.53,0.001,42.795,0.014c4.78,0.003,4.785,0.02,4.716,4.849
		C247.858,207.301,247.773,208.054,247.697,209.16z"/>
	<path fill="#868b90" stroke-width="3" d="M247.524,185.746c0.998,7.521,0.998,7.522-6.012,7.522c-23.028,0.001-46.056-0.055-69.084,0.073
		c-2.975,0.017-3.752-0.914-3.702-3.733c0.049-2.71,0.365-4.09,3.709-4.071c23.905,0.145,47.811,0.064,71.715,0.065
		C245.229,185.602,246.309,185.692,247.524,185.746z"/>
	<path fill="#868b90" stroke-width="3" d="M168.969,218.216c18.73,0,37.112,0,55.725,0c0,2.459,0,4.793,0,7.349c-18.559,0-37.021,0-55.725,0
		C168.969,223.106,168.969,220.852,168.969,218.216z"/>
</g>
</svg>
